# xmcd
# 
# Track frame offsets:
#     183
#     18653
#     28643
#     52578
#     74090
#     105810
#     128630
#     143783
#     167523
#     191153
#     214370
#     240420
# 
# Disc length: 3463
# 
# Revision: 7
# Processed by: cddbd v1.5.2PL0 Copyright (c) Steve Scherf et al.
# Submitted via: BonkEnc v1.0.15
# 
DISCID=a00d850c
DTITLE=Pantera - Cowboys From Hell
DYEAR=1990
DGENRE=Heavy Metal
TTITLE0=Cowboys From Hell
TTITLE1=Primal Concrete Sledge
TTITLE2=Psycho Holiday
TTITLE3=Heresy
TTITLE4=Cemetery Gates
TTITLE5=Domination
TTITLE6=Shattered
TTITLE7=Clash With Reality
TTITLE8=Medicine Man
TTITLE9=Message In Blood
TTITLE10=The Sleep
TTITLE11=The Art Of Shredding
EXTD=
EXTT0=
EXTT1=
EXTT2=
EXTT3=
EXTT4=
EXTT5=
EXTT6=
EXTT7=
EXTT8=
EXTT9=
EXTT10=
EXTT11=
PLAYORDER=
